<svg width="15" height="15" viewBox="0 0 15 15" fill="none" xmlns="http://www.w3.org/2000/svg">
<path d="M13.75 7.49999H1.25" stroke="#717182" stroke-opacity="0.8" stroke-width="1.24923" stroke-linecap="round" stroke-linejoin="round"/>
<path d="M3.40625 3.19374L1.25 7.49999V11.25C1.25 11.5815 1.38169 11.8995 1.61611 12.1339C1.85053 12.3683 2.16848 12.5 2.5 12.5H12.5C12.8315 12.5 13.1495 12.3683 13.3839 12.1339C13.6183 11.8995 13.75 11.5815 13.75 11.25V7.49999L11.5937 3.19374C11.4903 2.98548 11.3307 2.81022 11.1331 2.68767C10.9355 2.56511 10.7075 2.50012 10.475 2.49999H4.52499C4.29244 2.50012 4.06453 2.56511 3.8669 2.68767C3.66926 2.81022 3.50973 2.98548 3.40625 3.19374Z" stroke="#717182" stroke-opacity="0.8" stroke-width="1.24923" stroke-linecap="round" stroke-linejoin="round"/>
<path d="M3.75 10H3.75625" stroke="#717182" stroke-opacity="0.8" stroke-width="1.24923" stroke-linecap="round" stroke-linejoin="round"/>
<path d="M6.25 10H6.25625" stroke="#717182" stroke-opacity="0.8" stroke-width="1.24923" stroke-linecap="round" stroke-linejoin="round"/>
</svg>
